#N canvas 26 251 1403 595 10;
#X declare -lib mrpeach;
#X obj 63 122 import mrpeach;
#X obj 74 215 unpackOSC;
#X msg 600 429 disconnect;
#X obj 559 461 udpsend;
#X obj 530 360 packOSC;
#X msg 676 128 sendtyped /simulation1/manager/magnet/add/cylinder sfffifff
ceo 1000 0 -100 2 60 200 0.5;
#X msg 688 167 sendtyped /simulation1/manager/magnet/add/cylinder sfffifff
ceo -1000 0 -100 2 60 200 0.5;
#X msg 697 206 sendtyped /simulation1/manager/magnet/add/cylinder sfffifff
ceo 0 0 100 2 60 200 0.5;
#X msg 707 245 sendtyped /simulation1/manager/magnet/add/energyfield
sfffifff ceo 0 700 0 2400 200 1000 0 -0.1 0;
#X msg 716 285 sendtyped /simulation1/manager/magnet/add/energyfield
sfffifff ceo 0 -700 0 2400 200 1000 0 0.1 0;
#X obj 956 -33 metro 500;
#X obj 956 -53 tgl 15 0 empty empty empty 17 7 0 10 -262144 -1 -1 0
1;
#X msg 956 -10 sendtyped /simulation1/manager/boid/add ifffffffff 0
800 0 600 2 1 0 100 4 0.1;
#X obj 614 81 t b b;
#X obj 607 50 bng 15 250 50 0 empty empty empty 17 7 0 10 -262144 -1
-1;
#X msg 1079 110 send /simulation1/manager/magnet/remove/all;
#X msg 1112 213 sendtyped /simulation1/manager/magnet/add/energyfield
sfffifff ceo 0 700 0 2400 200 1000 0 -0.1 0;
#X msg 1121 253 sendtyped /simulation1/manager/magnet/add/energyfield
sfffifff ceo 0 -700 0 2400 200 1000 0 0.1 0;
#X obj 1043 88 t b b;
#X obj 1036 57 bng 15 250 50 0 empty empty empty 17 7 0 10 -262144
-1 -1;
#X msg 1102 174 sendtyped /simulation1/manager/magnet/add/energyfield
sfffifff ceo 0 0 -300 3600 2000 100 0 0 0.2;
#X msg 1094 136 sendtyped /simulation1/manager/magnet/add/cylinder
sfffifff ceo 0 0 -200 2 100 2000 0.1;
#X msg 661 102 send /simulation1/manager/magnet/remove/all;
#X msg 49 50 send /simulation1/manager/boid/remove/all;
#X msg 684 -29 /simulation1/manager/showoutlines \$1;
#X obj 686 -64 tgl 15 0 empty empty empty 17 7 0 10 -262144 -1 -1 0
1;
#X obj 69 168 udpreceive 9040;
#X obj 59 259 routeOSC /sound1 /sound2;
#X obj 34 360 unpack i f f f;
#X floatatom 21 392 5 0 0 0 - - -;
#X floatatom 60 394 5 0 0 0 - - -;
#X floatatom 102 395 5 0 0 0 - - -;
#X floatatom 143 397 5 0 0 0 - - -;
#X obj 203 364 unpack i f f f;
#X floatatom 190 396 5 0 0 0 - - -;
#X floatatom 230 399 5 0 0 0 - - -;
#X floatatom 271 399 5 0 0 0 - - -;
#X floatatom 312 401 5 0 0 0 - - -;
#X floatatom 357 399 5 0 0 0 - - -;
#X floatatom 397 402 5 0 0 0 - - -;
#X obj 370 367 unpack i f;
#X obj 52 295 route /flock/mirror /flock/collision /flock/warp;
#X msg 44 -38 send /simulation1/manager/boid/addswarm 100 1;
#X msg 46 -13 send /simulation1/manager/boid/addswarm 100 2;
#X msg 45 11 send /simulation1/manager/boid/addswarm 100 3;
#X msg 42 -59 send /simulation1/manager/boid/addswarm 100 0;
#X obj 321 126 t b b;
#X obj 287 75 bng 15 250 50 0 empty empty empty 17 7 0 10 -262144 -1
-1;
#X msg 352 156 send /simulation1/manager/magnet/remove/all;
#X msg 328 183 sendtyped /simulation1/manager/magnet/add/sphere sfffifff
ceo 0 0 -200 1 0 1000 -1;
#X obj 398 119 bng 15 250 50 0 empty empty empty 17 7 0 10 -262144
-1 -1;
#X text 394 100 lässt schwärme normal fliegen;
#X text 310 72 lässt schwärme auseinanderstieben;
#X text 625 48 kreiiert 3 magnetfelder;
#X text 1055 56 kreiiert 1 grosses magnetfeld;
#X text 977 -56 kreiiert alle halbe sekunde ein boid vom typ 0;
#X text 708 -64 zeigt die magnetfelder grafisch an;
#X text 45 -79 kriert verschiedene schwärme mit einem knopf;
#X text 42 31 löscht alle e's;
#X text 43 334 spiegel event;
#X text 197 342 collision event;
#X text 365 346 warp event;
#X text 19 408 typ;
#X text 188 414 typ;
#X text 359 417 typ;
#X text 59 413 xpos;
#X text 229 419 xpos;
#X text 397 423 xpos;
#X text 98 415 ypos;
#X text 271 420 ypos;
#X text 139 417 zpos;
#X text 315 420 zpos;
#X msg 366 -43 send /simulation1/manager/boid/randomize/all;
#X text 365 -63 weisst allen e's einen neuen schwarm zu;
#X text 732 404 <<< KLICK HIER ZUERST!!!;
#X msg 587 405 connect localhost 9030;
#X connect 1 0 27 0;
#X connect 2 0 3 0;
#X connect 4 0 3 0;
#X connect 5 0 4 0;
#X connect 6 0 4 0;
#X connect 7 0 4 0;
#X connect 8 0 4 0;
#X connect 9 0 4 0;
#X connect 10 0 12 0;
#X connect 11 0 10 0;
#X connect 12 0 4 0;
#X connect 13 0 5 0;
#X connect 13 0 6 0;
#X connect 13 0 7 0;
#X connect 13 0 8 0;
#X connect 13 0 9 0;
#X connect 13 1 22 0;
#X connect 14 0 13 0;
#X connect 15 0 4 0;
#X connect 16 0 4 0;
#X connect 17 0 4 0;
#X connect 18 0 21 0;
#X connect 18 0 20 0;
#X connect 18 0 16 0;
#X connect 18 0 17 0;
#X connect 18 1 15 0;
#X connect 19 0 18 0;
#X connect 20 0 4 0;
#X connect 21 0 4 0;
#X connect 22 0 4 0;
#X connect 23 0 4 0;
#X connect 24 0 4 0;
#X connect 25 0 24 0;
#X connect 26 0 1 0;
#X connect 27 0 41 0;
#X connect 28 0 29 0;
#X connect 28 1 30 0;
#X connect 28 2 31 0;
#X connect 28 3 32 0;
#X connect 33 0 34 0;
#X connect 33 1 35 0;
#X connect 33 2 36 0;
#X connect 33 3 37 0;
#X connect 40 0 38 0;
#X connect 40 1 39 0;
#X connect 41 0 28 0;
#X connect 41 1 33 0;
#X connect 41 2 40 0;
#X connect 42 0 4 0;
#X connect 43 0 4 0;
#X connect 44 0 4 0;
#X connect 45 0 4 0;
#X connect 46 0 49 0;
#X connect 46 1 48 0;
#X connect 47 0 46 0;
#X connect 48 0 4 0;
#X connect 49 0 4 0;
#X connect 50 0 48 0;
#X connect 72 0 4 0;
#X connect 75 0 3 0;
